<mxfile host="Electron" modified="2024-02-22T00:03:34.230Z" agent="Mozilla/5.0 (Windows NT 10.0; Win64; x64) AppleWebKit/537.36 (KHTML, like Gecko) draw.io/23.0.2 Chrome/120.0.6099.109 Electron/28.1.0 Safari/537.36" etag="FzNY7LoQtBUa8NjPDWSB" version="23.0.2" type="device">
  <diagram name="Page-1" id="JBSpOnJUcshLArSCw1gN">
    <mxGraphModel dx="5736" dy="3416" grid="1" gridSize="10" guides="1" tooltips="1" connect="1" arrows="1" fold="1" page="1" pageScale="1" pageWidth="850" pageHeight="1400" math="0" shadow="0">
      <root>
        <mxCell id="0" />
        <mxCell id="1" parent="0" />
        <mxCell id="ALNKECSh6X3FQ2PYPveJ-1" value="" style="rounded=0;whiteSpace=wrap;html=1;sketch=1;hachureGap=4;jiggle=2;curveFitting=1;fontFamily=Architects Daughter;fontSource=https%3A%2F%2Ffonts.googleapis.com%2Fcss%3Ffamily%3DArchitects%2BDaughter;fontSize=20;" vertex="1" parent="1">
          <mxGeometry x="40" y="40" width="1590" height="3090" as="geometry" />
        </mxCell>
        <mxCell id="ALNKECSh6X3FQ2PYPveJ-20" value="" style="rounded=0;whiteSpace=wrap;html=1;sketch=1;hachureGap=4;jiggle=2;curveFitting=1;fontFamily=Architects Daughter;fontSource=https%3A%2F%2Ffonts.googleapis.com%2Fcss%3Ffamily%3DArchitects%2BDaughter;fontSize=20;fillColor=#6d8764;fontColor=#ffffff;strokeColor=#3A5431;" vertex="1" parent="1">
          <mxGeometry x="40" y="40" width="1580" height="980" as="geometry" />
        </mxCell>
        <mxCell id="ALNKECSh6X3FQ2PYPveJ-21" value="Lorem ipsum dolor sit amet, consectetur adipiscing elit, sed do eiusmod &lt;br style=&quot;font-size: 47px;&quot;&gt;tempor incididunt ut labore&amp;nbsp;" style="rounded=0;whiteSpace=wrap;html=1;sketch=1;hachureGap=4;jiggle=2;curveFitting=1;fontFamily=Architects Daughter;fontSource=https%3A%2F%2Ffonts.googleapis.com%2Fcss%3Ffamily%3DArchitects%2BDaughter;fontSize=47;align=left;" vertex="1" parent="1">
          <mxGeometry x="40" y="1020" width="1580" height="430" as="geometry" />
        </mxCell>
        <mxCell id="ALNKECSh6X3FQ2PYPveJ-22" value="" style="rhombus;whiteSpace=wrap;html=1;sketch=1;hachureGap=4;jiggle=2;curveFitting=1;fontFamily=Architects Daughter;fontSource=https%3A%2F%2Ffonts.googleapis.com%2Fcss%3Ffamily%3DArchitects%2BDaughter;fontSize=20;fillColor=#f0a30a;fontColor=#000000;strokeColor=#BD7000;" vertex="1" parent="1">
          <mxGeometry x="615" y="1470" width="80" height="80" as="geometry" />
        </mxCell>
        <mxCell id="ALNKECSh6X3FQ2PYPveJ-23" value="" style="rhombus;whiteSpace=wrap;html=1;sketch=1;hachureGap=4;jiggle=2;curveFitting=1;fontFamily=Architects Daughter;fontSource=https%3A%2F%2Ffonts.googleapis.com%2Fcss%3Ffamily%3DArchitects%2BDaughter;fontSize=20;fillColor=#f0a30a;fontColor=#000000;strokeColor=#BD7000;" vertex="1" parent="1">
          <mxGeometry x="705" y="1470" width="80" height="80" as="geometry" />
        </mxCell>
        <mxCell id="ALNKECSh6X3FQ2PYPveJ-24" value="" style="rhombus;whiteSpace=wrap;html=1;sketch=1;hachureGap=4;jiggle=2;curveFitting=1;fontFamily=Architects Daughter;fontSource=https%3A%2F%2Ffonts.googleapis.com%2Fcss%3Ffamily%3DArchitects%2BDaughter;fontSize=20;fillColor=#f0a30a;fontColor=#000000;strokeColor=#BD7000;" vertex="1" parent="1">
          <mxGeometry x="795" y="1470" width="80" height="80" as="geometry" />
        </mxCell>
        <mxCell id="ALNKECSh6X3FQ2PYPveJ-25" value="" style="rhombus;whiteSpace=wrap;html=1;sketch=1;hachureGap=4;jiggle=2;curveFitting=1;fontFamily=Architects Daughter;fontSource=https%3A%2F%2Ffonts.googleapis.com%2Fcss%3Ffamily%3DArchitects%2BDaughter;fontSize=20;fillColor=#f0a30a;fontColor=#000000;strokeColor=#BD7000;" vertex="1" parent="1">
          <mxGeometry x="885" y="1470" width="80" height="80" as="geometry" />
        </mxCell>
        <mxCell id="ALNKECSh6X3FQ2PYPveJ-26" value="" style="rhombus;whiteSpace=wrap;html=1;sketch=1;hachureGap=4;jiggle=2;curveFitting=1;fontFamily=Architects Daughter;fontSource=https%3A%2F%2Ffonts.googleapis.com%2Fcss%3Ffamily%3DArchitects%2BDaughter;fontSize=20;" vertex="1" parent="1">
          <mxGeometry x="975" y="1470" width="80" height="80" as="geometry" />
        </mxCell>
        <mxCell id="ALNKECSh6X3FQ2PYPveJ-27" value="$14.99" style="rounded=0;whiteSpace=wrap;html=1;sketch=1;hachureGap=4;jiggle=2;curveFitting=1;fontFamily=Architects Daughter;fontSource=https%3A%2F%2Ffonts.googleapis.com%2Fcss%3Ffamily%3DArchitects%2BDaughter;fontSize=63;align=center;" vertex="1" parent="1">
          <mxGeometry x="515" y="1590" width="640" height="110" as="geometry" />
        </mxCell>
        <mxCell id="ALNKECSh6X3FQ2PYPveJ-38" value="ADD TO CART" style="rounded=1;whiteSpace=wrap;html=1;sketch=1;hachureGap=4;jiggle=2;curveFitting=1;fontFamily=Architects Daughter;fontSource=https%3A%2F%2Ffonts.googleapis.com%2Fcss%3Ffamily%3DArchitects%2BDaughter;fontSize=43;arcSize=50;" vertex="1" parent="1">
          <mxGeometry x="575" y="1900" width="510" height="230" as="geometry" />
        </mxCell>
        <mxCell id="ALNKECSh6X3FQ2PYPveJ-40" value="Quantity" style="rounded=0;whiteSpace=wrap;html=1;sketch=1;hachureGap=4;jiggle=2;curveFitting=1;fontFamily=Architects Daughter;fontSource=https%3A%2F%2Ffonts.googleapis.com%2Fcss%3Ffamily%3DArchitects%2BDaughter;fontSize=63;align=left;" vertex="1" parent="1">
          <mxGeometry x="515" y="1702.5" width="465" height="110" as="geometry" />
        </mxCell>
        <mxCell id="ALNKECSh6X3FQ2PYPveJ-42" value="3" style="rounded=0;whiteSpace=wrap;html=1;sketch=1;hachureGap=4;jiggle=2;curveFitting=1;fontFamily=Architects Daughter;fontSource=https%3A%2F%2Ffonts.googleapis.com%2Fcss%3Ffamily%3DArchitects%2BDaughter;fontSize=63;align=center;" vertex="1" parent="1">
          <mxGeometry x="975" y="1702.5" width="105" height="110" as="geometry" />
        </mxCell>
        <mxCell id="ALNKECSh6X3FQ2PYPveJ-45" value="" style="rounded=0;whiteSpace=wrap;html=1;sketch=1;hachureGap=4;jiggle=2;curveFitting=1;fontFamily=Architects Daughter;fontSource=https%3A%2F%2Ffonts.googleapis.com%2Fcss%3Ffamily%3DArchitects%2BDaughter;fontSize=20;" vertex="1" parent="1">
          <mxGeometry x="1080" y="1702.5" width="75" height="110" as="geometry" />
        </mxCell>
        <mxCell id="ALNKECSh6X3FQ2PYPveJ-43" value="" style="triangle;whiteSpace=wrap;html=1;sketch=1;hachureGap=4;jiggle=2;curveFitting=1;fontFamily=Architects Daughter;fontSource=https%3A%2F%2Ffonts.googleapis.com%2Fcss%3Ffamily%3DArchitects%2BDaughter;fontSize=20;rotation=-90;" vertex="1" parent="1">
          <mxGeometry x="1097.5" y="1700" width="35" height="60" as="geometry" />
        </mxCell>
        <mxCell id="ALNKECSh6X3FQ2PYPveJ-44" value="" style="triangle;whiteSpace=wrap;html=1;sketch=1;hachureGap=4;jiggle=2;curveFitting=1;fontFamily=Architects Daughter;fontSource=https%3A%2F%2Ffonts.googleapis.com%2Fcss%3Ffamily%3DArchitects%2BDaughter;fontSize=20;rotation=90;" vertex="1" parent="1">
          <mxGeometry x="1097.5" y="1760" width="35" height="60" as="geometry" />
        </mxCell>
      </root>
    </mxGraphModel>
  </diagram>
</mxfile>
